<?xml version="1.0" encoding="UTF-8" standalone="no"?>
<svg
   version="1.1"
   viewBox="-5 -10 104.244 84.565002"
   id="svg182"
   sodipodi:docname="bike-icons.svg"
   width="104.244"
   height="84.565002"
   inkscape:version="1.2.2 (b0a8486541, 2022-12-01)"
   inkscape:export-filename="marker-full.png"
   inkscape:export-xdpi="58.938641"
   inkscape:export-ydpi="58.938641"
   xmlns:inkscape="http://www.inkscape.org/namespaces/inkscape"
   xmlns:sodipodi="http://sodipodi.sourceforge.net/DTD/sodipodi-0.dtd"
   xmlns="http://www.w3.org/2000/svg"
   xmlns:svg="http://www.w3.org/2000/svg">
  <defs
     id="defs186" />
  <sodipodi:namedview
     id="namedview184"
     pagecolor="#ffffff"
     bordercolor="#666666"
     borderopacity="1.0"
     inkscape:showpageshadow="2"
     inkscape:pageopacity="0.0"
     inkscape:pagecheckerboard="0"
     inkscape:deskcolor="#d1d1d1"
     showgrid="false"
     inkscape:zoom="4.6296296"
     inkscape:cx="51.192"
     inkscape:cy="49.572"
     inkscape:window-width="1600"
     inkscape:window-height="834"
     inkscape:window-x="0"
     inkscape:window-y="0"
     inkscape:window-maximized="1"
     inkscape:current-layer="svg182" />
  <g
     inkscape:groupmode="layer"
     id="g1160"
     inkscape:label="Full"
     style="display:inline">
    <path
       id="path1156"
       style="fill:#000000;fill-opacity:1;stroke:#000000;stroke-width:2.75528;stroke-linecap:round;stroke-linejoin:round"
       d="m 18.495672,-7.6222071 h 57.252659 c 11.699491,0 21.118215,9.418724 21.118215,21.1182161 v 23.364292 c 0,11.699491 -9.418724,21.118215 -21.118215,21.118215 H 61.435167 L 47.122002,72.187266 32.808837,57.978516 H 18.495672 c -11.6994907,0 -21.1182149,-9.418724 -21.1182149,-21.118215 V 13.496009 c 0,-11.6994921 9.4187242,-21.1182161 21.1182149,-21.1182161 z"
       sodipodi:nodetypes="ssssscccssss"
       inkscape:label="background" />
    <path
       d="m 73.675864,18.943795 c -2.6406,0 -5.1406,0.67188 -7.3125,1.8281 l -6.375,-9.5781 2.6406,-5.5469001 h 2.4688 c 0.85938,0 1.5625,-0.70312 1.5625,-1.5625 0,-0.85938 -0.70312,-1.5625 -1.5625,-1.5625 h -7.8125 c -0.85938,0 -1.5625,0.70312 -1.5625,1.5625 0,0.85938 0.70312,1.5625 1.5625,1.5625 h 1.8906 l -1.8594,3.9062 h -23.109 l 2.9688,-6.25 h 5.2656 c 0.85938,0 1.5625,-0.70312 1.5625,-1.5625 0,-0.85938 -0.70312,-1.5625 -1.5625,-1.5625 h -6.25 c -0.60938,0 -1.1562,0.34375 -1.4062,0.89062 l -8.9531,18.7970001 c -1.6406,-0.59375 -3.4219,-0.9375 -5.2656,-0.9375 -8.6094,0 -15.6249994,7.0156 -15.6249994,15.625 0,8.6094 7.0155994,15.625 15.6249994,15.625 8.6094,0 15.625,-7.0156 15.625,-15.625 0,-5.6562 -3.0312,-10.609 -7.5469,-13.344 l 3.2031,-6.7344 13.969,20.938 c 0,0 0.0625,0.07813 0.09375,0.10938 0.03125,0.03125 0.04687,0.0625 0.07813,0.09375 0.125,0.125 0.26562,0.25 0.4375,0.32812 l 0.01563,0.01563 h 0.04687 c 0.1875,0.07813 0.40625,0.14062 0.625,0.14062 h 11.016 c 0.78125,7.8906 7.4531,14.062 15.547,14.062 8.6094,0 15.625,-7.0156 15.625,-15.625 0,-8.6094 -7.0156,-15.625 -15.625,-15.625 z m -40.625,15.625 c 0,6.8906 -5.6094,12.5 -12.5,12.5 -6.8906,0 -12.4999994,-5.6094 -12.4999994,-12.5 0,-6.8906 5.6093994,-12.5 12.4999994,-12.5 1.375,0 2.6875,0.23438 3.9219,0.64062 l -5.3281,11.188 c -0.375,0.78125 -0.04687,1.7188 0.73438,2.0781 0.21875,0.10938 0.4375,0.15625 0.67188,0.15625 0.57812,0 1.1406,-0.32812 1.4062,-0.89062 l 5.3281,-11.188 c 3.4531,2.2188 5.7656,6.1094 5.7656,10.516 z m 30.703,-12.062 c -3.1094,2.5625 -5.2031,6.2812 -5.625,10.5 h -8.5469 l 8.8281,-18.516 z m 1.75,2.625 5.25,7.875 h -9.4688 c 0.39062,-3.1406 1.9531,-5.9062 4.2188,-7.875 z m -9.7031,-12.438 -8.9219,18.719 -12.484,-18.719 z m 17.875,34.375 c -6.3594,0 -11.625,-4.7812 -12.391,-10.938 h 12.391 c 0.57812,0 1.1094,-0.3125 1.375,-0.82812 0.2656,-0.51562 0.23438,-1.125 -0.07813,-1.6094 l -6.875,-10.312 c 1.6875,-0.84375 3.5625,-1.3281 5.5781,-1.3281 6.8906,0 12.5,5.6094 12.5,12.5 0,6.8906 -5.6094,12.5 -12.5,12.5 z"
       id="path1158"
       inkscape:label="bike"
       style="fill:#ffffff;fill-opacity:1" />
  </g>
  <g
     inkscape:groupmode="layer"
     id="g1154"
     inkscape:label="Partial"
     style="display:none">
    <path
       id="path1146"
       style="fill:#ffffff;fill-opacity:1;stroke:none;stroke-width:2.75528;stroke-linecap:round;stroke-linejoin:round;stroke-opacity:1"
       d="m 18.495672,-7.6222071 h 57.252659 c 11.699491,0 21.118215,9.418724 21.118215,21.1182161 v 23.364292 c 0,11.699491 -9.418724,21.118215 -21.118215,21.118215 H 61.435167 L 47.122002,72.187266 32.808837,57.978516 H 18.495672 c -11.6994907,0 -21.1182149,-9.418724 -21.1182149,-21.118215 V 13.496009 c 0,-11.6994921 9.4187242,-21.1182161 21.1182149,-21.1182161 z"
       sodipodi:nodetypes="ssssscccssss"
       inkscape:label="white_fill_background" />
    <path
       id="path1148"
       style="fill:#000000;fill-opacity:1;stroke:none;stroke-width:2.75528;stroke-linecap:round;stroke-linejoin:round"
       d="m -2.6230469,24.503906 v 12.355469 c 0,11.699479 9.4196616,21.119141 21.1191409,21.119141 h 14.3125 L 47.121094,72.1875 61.435547,57.978516 h 14.3125 c 11.699479,0 21.119141,-9.419662 21.119141,-21.119141 V 24.503906 Z"
       inkscape:label="black_fill_background" />
    <path
       id="path1150"
       style="fill:none;stroke:#000000;stroke-width:2.75528;stroke-linecap:round;stroke-linejoin:round;stroke-opacity:1"
       d="m 18.495672,-7.6222071 h 57.252659 c 11.699491,0 21.118215,9.418724 21.118215,21.1182161 v 23.364292 c 0,11.699491 -9.418724,21.118215 -21.118215,21.118215 H 61.435167 L 47.122002,72.187266 32.808837,57.978516 H 18.495672 c -11.6994907,0 -21.1182149,-9.418724 -21.1182149,-21.118215 V 13.496009 c 0,-11.6994921 9.4187242,-21.1182161 21.1182149,-21.1182161 z"
       sodipodi:nodetypes="ssssscccssss"
       inkscape:label="black_border" />
    <path
       d="m 73.675864,18.943795 c -2.6406,0 -5.1406,0.67188 -7.3125,1.8281 l -6.375,-9.5781 2.6406,-5.5469001 h 2.4688 c 0.85938,0 1.5625,-0.70312 1.5625,-1.5625 0,-0.85938 -0.70312,-1.5625 -1.5625,-1.5625 h -7.8125 c -0.85938,0 -1.5625,0.70312 -1.5625,1.5625 0,0.85938 0.70312,1.5625 1.5625,1.5625 h 1.8906 l -1.8594,3.9062 h -23.109 l 2.9688,-6.25 h 5.2656 c 0.85938,0 1.5625,-0.70312 1.5625,-1.5625 0,-0.85938 -0.70312,-1.5625 -1.5625,-1.5625 h -6.25 c -0.60938,0 -1.1562,0.34375 -1.4062,0.89062 l -8.9531,18.7970001 c -1.6406,-0.59375 -3.4219,-0.9375 -5.2656,-0.9375 -8.6094,0 -15.6249994,7.0156 -15.6249994,15.625 0,8.6094 7.0155994,15.625 15.6249994,15.625 8.6094,0 15.625,-7.0156 15.625,-15.625 0,-5.6562 -3.0312,-10.609 -7.5469,-13.344 l 3.2031,-6.7344 13.969,20.938 c 0,0 0.0625,0.07813 0.09375,0.10938 0.03125,0.03125 0.04687,0.0625 0.07813,0.09375 0.125,0.125 0.26562,0.25 0.4375,0.32812 l 0.01563,0.01563 h 0.04687 c 0.1875,0.07813 0.40625,0.14062 0.625,0.14062 h 11.016 c 0.78125,7.8906 7.4531,14.062 15.547,14.062 8.6094,0 15.625,-7.0156 15.625,-15.625 0,-8.6094 -7.0156,-15.625 -15.625,-15.625 z m -40.625,15.625 c 0,6.8906 -5.6094,12.5 -12.5,12.5 -6.8906,0 -12.4999994,-5.6094 -12.4999994,-12.5 0,-6.8906 5.6093994,-12.5 12.4999994,-12.5 1.375,0 2.6875,0.23438 3.9219,0.64062 l -5.3281,11.188 c -0.375,0.78125 -0.04687,1.7188 0.73438,2.0781 0.21875,0.10938 0.4375,0.15625 0.67188,0.15625 0.57812,0 1.1406,-0.32812 1.4062,-0.89062 l 5.3281,-11.188 c 3.4531,2.2188 5.7656,6.1094 5.7656,10.516 z m 30.703,-12.062 c -3.1094,2.5625 -5.2031,6.2812 -5.625,10.5 h -8.5469 l 8.8281,-18.516 z m 1.75,2.625 5.25,7.875 h -9.4688 c 0.39062,-3.1406 1.9531,-5.9062 4.2188,-7.875 z m -9.7031,-12.438 -8.9219,18.719 -12.484,-18.719 z m 17.875,34.375 c -6.3594,0 -11.625,-4.7812 -12.391,-10.938 h 12.391 c 0.57812,0 1.1094,-0.3125 1.375,-0.82812 0.2656,-0.51562 0.23438,-1.125 -0.07813,-1.6094 l -6.875,-10.312 c 1.6875,-0.84375 3.5625,-1.3281 5.5781,-1.3281 6.8906,0 12.5,5.6094 12.5,12.5 0,6.8906 -5.6094,12.5 -12.5,12.5 z"
       id="path1152"
       style="mix-blend-mode:difference;fill:#ffffff;fill-opacity:1"
       inkscape:label="bike" />
  </g>
  <g
     inkscape:groupmode="layer"
     id="layer1"
     inkscape:label="Empty"
     style="display:none">
    <path
       id="rect445"
       style="fill:#f6f6f6;stroke:#000000;stroke-width:2.75528;stroke-linecap:round;stroke-linejoin:round"
       d="m 18.495672,-7.6222071 h 57.252659 c 11.699491,0 21.118215,9.418724 21.118215,21.1182161 v 23.364292 c 0,11.699491 -9.418724,21.118215 -21.118215,21.118215 H 61.435167 L 47.122002,72.187266 32.808837,57.978516 H 18.495672 c -11.6994907,0 -21.1182149,-9.418724 -21.1182149,-21.118215 V 13.496009 c 0,-11.6994921 9.4187242,-21.1182161 21.1182149,-21.1182161 z"
       sodipodi:nodetypes="ssssscccssss"
       inkscape:label="background" />
    <path
       d="m 73.675864,18.943795 c -2.6406,0 -5.1406,0.67188 -7.3125,1.8281 l -6.375,-9.5781 2.6406,-5.5469001 h 2.4688 c 0.85938,0 1.5625,-0.70312 1.5625,-1.5625 0,-0.85938 -0.70312,-1.5625 -1.5625,-1.5625 h -7.8125 c -0.85938,0 -1.5625,0.70312 -1.5625,1.5625 0,0.85938 0.70312,1.5625 1.5625,1.5625 h 1.8906 l -1.8594,3.9062 h -23.109 l 2.9688,-6.25 h 5.2656 c 0.85938,0 1.5625,-0.70312 1.5625,-1.5625 0,-0.85938 -0.70312,-1.5625 -1.5625,-1.5625 h -6.25 c -0.60938,0 -1.1562,0.34375 -1.4062,0.89062 l -8.9531,18.7970001 c -1.6406,-0.59375 -3.4219,-0.9375 -5.2656,-0.9375 -8.6094,0 -15.6249994,7.0156 -15.6249994,15.625 0,8.6094 7.0155994,15.625 15.6249994,15.625 8.6094,0 15.625,-7.0156 15.625,-15.625 0,-5.6562 -3.0312,-10.609 -7.5469,-13.344 l 3.2031,-6.7344 13.969,20.938 c 0,0 0.0625,0.07813 0.09375,0.10938 0.03125,0.03125 0.04687,0.0625 0.07813,0.09375 0.125,0.125 0.26562,0.25 0.4375,0.32812 l 0.01563,0.01563 h 0.04687 c 0.1875,0.07813 0.40625,0.14062 0.625,0.14062 h 11.016 c 0.78125,7.8906 7.4531,14.062 15.547,14.062 8.6094,0 15.625,-7.0156 15.625,-15.625 0,-8.6094 -7.0156,-15.625 -15.625,-15.625 z m -40.625,15.625 c 0,6.8906 -5.6094,12.5 -12.5,12.5 -6.8906,0 -12.4999994,-5.6094 -12.4999994,-12.5 0,-6.8906 5.6093994,-12.5 12.4999994,-12.5 1.375,0 2.6875,0.23438 3.9219,0.64062 l -5.3281,11.188 c -0.375,0.78125 -0.04687,1.7188 0.73438,2.0781 0.21875,0.10938 0.4375,0.15625 0.67188,0.15625 0.57812,0 1.1406,-0.32812 1.4062,-0.89062 l 5.3281,-11.188 c 3.4531,2.2188 5.7656,6.1094 5.7656,10.516 z m 30.703,-12.062 c -3.1094,2.5625 -5.2031,6.2812 -5.625,10.5 h -8.5469 l 8.8281,-18.516 z m 1.75,2.625 5.25,7.875 h -9.4688 c 0.39062,-3.1406 1.9531,-5.9062 4.2188,-7.875 z m -9.7031,-12.438 -8.9219,18.719 -12.484,-18.719 z m 17.875,34.375 c -6.3594,0 -11.625,-4.7812 -12.391,-10.938 h 12.391 c 0.57812,0 1.1094,-0.3125 1.375,-0.82812 0.2656,-0.51562 0.23438,-1.125 -0.07813,-1.6094 l -6.875,-10.312 c 1.6875,-0.84375 3.5625,-1.3281 5.5781,-1.3281 6.8906,0 12.5,5.6094 12.5,12.5 0,6.8906 -5.6094,12.5 -12.5,12.5 z"
       id="path176"
       inkscape:label="bike" />
  </g>
</svg>
